<?xml version="1.0" encoding="UTF-8" standalone="no"?>
<svg
   height="24px"
   width="24px"
   viewBox="0 0 24 24"
   version="1.1"
   id="svg506"
   xmlns="http://www.w3.org/2000/svg"
   xmlns:svg="http://www.w3.org/2000/svg">
  <defs
     id="defs510" />
  <g
     id="g5301"
     transform="matrix(1.1971379,0,0,1.1981265,-2.389592,-2.363466)">
    <ellipse
       style="fill:#ffffff;stroke:none;stroke-width:4.47284"
       id="path5458"
       cx="11.98951"
       cy="11.995716"
       rx="8.8872652"
       ry="9.1108084" />
    <path
       d="M 12,22 Q 9.925,22 8.1,21.212 6.275,20.425 4.925,19.075 3.575,17.725 2.788,15.9 2,14.075 2,12 2,9.925 2.788,8.1 3.575,6.275 4.925,4.925 6.275,3.575 8.1,2.787 9.925,2 12,2 q 2.075,0 3.9,0.787 1.825,0.788 3.175,2.138 1.35,1.35 2.137,3.175 Q 22,9.925 22,12 q 0,2.075 -0.788,3.9 -0.787,1.825 -2.137,3.175 -1.35,1.35 -3.175,2.137 Q 14.075,22 12,22 Z m 0,-2 q 3.35,0 5.675,-2.325 Q 20,15.35 20,12 20,8.65 17.675,6.325 15.35,4 12,4 8.65,4 6.325,6.325 4,8.65 4,12 4,15.35 6.325,17.675 8.65,20 12,20 Z m 0,-8 z"
       id="path504"
       style="stroke-width:1.19601;fill:#0b006b;fill-opacity:1" />
    <path
       d="m 6.4,18.971897 -1.4,-1.4 5.6,-5.6 -5.6,-5.6 1.4,-1.4 5.6,5.6 5.6,-5.6 1.4,1.4 -5.6,5.6 5.6,5.6 -1.4,1.4 -5.6,-5.6 z"
       id="path284"
       style="stroke-width:1.19601;fill:#0b006b;fill-opacity:1" />
  </g>
</svg>
