<?xml version="1.0" encoding="UTF-8" standalone="no"?>
<svg
   height="24px"
   viewBox="0 0 24 24"
   width="24px"
   fill="#000000"
   version="1.1"
   id="svg6049"
   xmlns="http://www.w3.org/2000/svg"
   xmlns:svg="http://www.w3.org/2000/svg">
  <defs
     id="defs6053" />
  <ellipse
     style="fill:#ffffff;stroke:none;stroke-width:5.29461"
     id="path5458"
     cx="12.014051"
     cy="12.098361"
     rx="10.567595"
     ry="10.736214" />
  <path
     d="m 12.014051,0.00468384 c -6.6016763,0 -11.98126411,5.39220606 -11.98126411,12.00936816 0,6.617162 5.37958781,12.009367 11.98126411,12.009367 6.601678,0 11.981265,-5.392205 11.981265,-12.009367 0,-6.6171621 -5.379587,-12.00936816 -11.981265,-12.00936816 z m 0,21.61686116 c -5.2837371,0 -9.5850112,-4.311362 -9.5850112,-9.607493 0,-5.2961316 4.3012741,-9.6074946 9.5850112,-9.6074946 5.283738,0 9.585013,4.311363 9.585013,9.6074946 0,5.296131 -4.301275,9.607493 -9.585013,9.607493 z m 3.594379,-9.607493 c 0,1.993554 -1.605489,3.602809 -3.594379,3.602809 -1.988889,0 -3.5943788,-1.609255 -3.5943788,-3.602809 0,-1.993555 1.6054898,-3.6028108 3.5943788,-3.6028108 1.98889,0 3.594379,1.6092558 3.594379,3.6028108 z"
     id="path6047"
     style="stroke-width:1.19954;fill:#0b006b;fill-opacity:1" />
</svg>
