<?xml version="1.0" encoding="UTF-8"?>
<svg viewBox="0 0 24 24" width="24px" height="24px" version="1.1" xmlns="http://www.w3.org/2000/svg" xmlns:cc="http://creativecommons.org/ns#" xmlns:dc="http://purl.org/dc/elements/1.1/" xmlns:rdf="http://www.w3.org/1999/02/22-rdf-syntax-ns#">
 <metadata>
  <rdf:RDF>
   <cc:Work rdf:about="">
    <dc:format>image/svg+xml</dc:format>
    <dc:type rdf:resource="http://purl.org/dc/dcmitype/StillImage"/>
    <dc:title/>
   </cc:Work>
  </rdf:RDF>
 </metadata>
 <ellipse cx="12.026" cy="11.973" rx="10.621" ry="10.515" fill="#fff"/>
 <g fill="#0b006b" stroke-width="1.1969">
  <path d="m12.016 23.969q-2.4868 0-4.6739-0.94191-2.1871-0.94071-3.805-2.5544t-2.5611-3.7951q-0.94437-2.1814-0.94437-4.6617t0.94437-4.6617q0.94317-2.1814 2.5611-3.7951 1.6179-1.6137 3.805-2.5556 2.1871-0.94071 4.6739-0.94071t4.6739 0.94071q2.1871 0.94191 3.805 2.5556 1.6179 1.6137 2.5611 3.7951 0.94437 2.1814 0.94437 4.6617t-0.94437 4.6617q-0.94317 2.1814-2.5611 3.7951-1.6179 1.6137-3.805 2.5544-2.1871 0.94191-4.6739 0.94191zm0-2.3906q4.0148 0 6.8011-2.7791 2.7864-2.7791 2.7864-6.7834t-2.7864-6.7834-6.8011-2.7791q-4.0148 0-6.8011 2.7791-2.7864 2.7791-2.7864 6.7834t2.7864 6.7834 6.8011 2.7791z"/>
  <path d="m7.0312 5.3984v13.1h1.9199v-5.9785h6.0605v5.9785h1.9199v-13.1h-1.9199v5.7109h-6.0605v-5.7109h-1.9199z"/>
 </g>
</svg>
