<?xml version="1.0" encoding="UTF-8"?>
<svg viewBox="0 0 24 24" width="24px" height="24px" version="1.1" xmlns="http://www.w3.org/2000/svg" xmlns:cc="http://creativecommons.org/ns#" xmlns:dc="http://purl.org/dc/elements/1.1/" xmlns:rdf="http://www.w3.org/1999/02/22-rdf-syntax-ns#">
 <metadata>
  <rdf:RDF>
   <cc:Work rdf:about="">
    <dc:format>image/svg+xml</dc:format>
    <dc:type rdf:resource="http://purl.org/dc/dcmitype/StillImage"/>
    <dc:title/>
   </cc:Work>
  </rdf:RDF>
 </metadata>
 <ellipse cx="12.017" cy="12.155" rx="10.575" ry="10.621" fill="#fff"/>
 <g fill="#0b006b">
  <path d="m12.02 23.947q-2.4832 0-4.6673-0.94146-2.184-0.94026-3.7996-2.5532-1.6156-1.6129-2.5574-3.7933-0.94302-2.1804-0.94302-4.6595 0-2.4791 0.94302-4.6595 0.94183-2.1804 2.5574-3.7933 1.6156-1.6129 3.7996-2.5544 2.184-0.94026 4.6673-0.94026 2.4832 0 4.6673 0.94026 2.184 0.94146 3.7996 2.5544 1.6156 1.6129 2.5574 3.7933 0.94302 2.1804 0.94302 4.6595 0 2.4791-0.94302 4.6595-0.94183 2.1804-2.5574 3.7933-1.6156 1.6129-3.7996 2.5532-2.184 0.94146-4.6673 0.94146zm0-2.3895q4.009 0 6.7914-2.7778 2.7824-2.7778 2.7824-6.7802 0-4.0024-2.7824-6.7802-2.7824-2.7778-6.7914-2.7778-4.0091 0-6.7915 2.7778-2.7824 2.7778-2.7824 6.7802 0 4.0024 2.7824 6.7802t6.7915 2.7778z" stroke-width="1.4301"/>
  <path d="m5.5977 5.6543v13.094h1.916v-5.9766h6.0527v5.9766h1.916v-13.094h-1.916v5.707h-6.0527v-5.707h-1.916z" stroke-width="1.1957"/>
  <path d="m17.42 6.1055v1.4121l-1.3008-0.40234-0.20508 0.71875 1.2988 0.40039-0.86133 1.1562 0.56641 0.45898 0.91406-1.2246 0.87695 1.1875 0.55664-0.47461-0.82812-1.1191 1.248-0.60742-0.30469-0.67773-1.2422 0.60547v-1.4336h-0.71875z" stroke-width="1.9891"/>
 </g>
</svg>
