<?xml version="1.0" encoding="UTF-8" standalone="no"?>
<svg
   height="24px"
   width="24px"
   viewBox="0 0 24 24"
   version="1.1"
   id="svg5280"
   xmlns="http://www.w3.org/2000/svg"
   xmlns:svg="http://www.w3.org/2000/svg">
  <defs
     id="defs5284" />
  <ellipse
     style="fill:#ffffff;stroke:none;stroke-width:5.3227"
     id="path5458"
     cx="11.971897"
     cy="11.999998"
     rx="10.680008"
     ry="10.736214" />
  <path
     d="m 12.014051,23.911007 q -2.4861119,0 -4.6726927,-0.940802 Q 5.1547775,22.030597 3.5373068,20.418817 1.919836,18.807037 0.97691059,16.62815 q -0.9441237,-2.178887 -0.9441237,-4.656254 0,-2.4773644 0.9441237,-4.656252 Q 1.919836,5.1367565 3.5373068,3.5249766 5.1547775,1.9131967 7.3413583,0.97239485 9.5279391,0.03278689 12.014051,0.03278689 q 2.486113,0 4.672694,0.93960796 2.18658,0.94080185 3.804051,2.55258175 1.617471,1.6117799 2.560397,3.7906674 0.944123,2.1788876 0.944123,4.656252 0,2.477367 -0.944123,4.656254 -0.942926,2.178887 -2.560397,3.790667 -1.617471,1.61178 -3.804051,2.551388 -2.186581,0.940802 -4.672694,0.940802 z m 0,-2.387822 q 4.013725,0 6.799368,-2.775843 2.785645,-2.775843 2.785645,-6.775446 0,-3.999601 -2.785645,-6.775444 -2.785643,-2.7758431 -6.799368,-2.7758431 -4.0137232,0 -6.7993672,2.7758431 -2.785644,2.775843 -2.785644,6.775444 0,3.999603 2.785644,6.775446 2.785644,2.775843 6.7993672,2.775843 z m 0,-9.551289 z"
     id="path5278"
     style="stroke-width:1.19601;fill:#0b006b;fill-opacity:1" />
</svg>
