<?xml version="1.0" encoding="UTF-8" standalone="no"?>
<svg
   xmlns:dc="http://purl.org/dc/elements/1.1/"
   xmlns:cc="http://creativecommons.org/ns#"
   xmlns:rdf="http://www.w3.org/1999/02/22-rdf-syntax-ns#"
   xmlns:svg="http://www.w3.org/2000/svg"
   xmlns="http://www.w3.org/2000/svg"
   xmlns:xlink="http://www.w3.org/1999/xlink"
   xmlns:sodipodi="http://sodipodi.sourceforge.net/DTD/sodipodi-0.dtd"
   xmlns:inkscape="http://www.inkscape.org/namespaces/inkscape"
   width="18"
   height="16"
   viewBox="0 0 4.7624999 4.2333332"
   version="1.1"
   id="svg8"
   inkscape:version="1.0.1 (3bc2e813f5, 2020-09-07)"
   sodipodi:docname="Image.svg">
  <defs
     id="defs2">
    <mask
       maskUnits="userSpaceOnUse"
       id="mask18689">
      <path
         sodipodi:nodetypes="ccccc"
         inkscape:connector-curvature="0"
         id="path18691"
         d="M 1.495586,1036.8977 H 13.5 v 10.0292 H 1.495586 Z"
         style="display:inline;fill:#ffffff;fill-opacity:1;stroke:#ffffff;stroke-width:1;stroke-linecap:butt;stroke-linejoin:miter;stroke-miterlimit:4;stroke-dashoffset:0;stroke-opacity:1" />
    </mask>
    <linearGradient
       inkscape:collect="always"
       id="linearGradient3864">
      <stop
         style="stop-color:#d1f7fe;stop-opacity:1;"
         offset="0"
         id="stop3866" />
      <stop
         style="stop-color:#ffffff;stop-opacity:1"
         offset="1"
         id="stop3868" />
    </linearGradient>
    <linearGradient
       inkscape:collect="always"
       id="linearGradient3834">
      <stop
         style="stop-color:#92c2ef;stop-opacity:1"
         offset="0"
         id="stop3836" />
      <stop
         style="stop-color:#83b3e2;stop-opacity:1"
         offset="1"
         id="stop3838" />
    </linearGradient>
    <linearGradient
       inkscape:collect="always"
       id="linearGradient3852">
      <stop
         style="stop-color:#316493;stop-opacity:1"
         offset="0"
         id="stop3854" />
      <stop
         style="stop-color:#e5ecf3;stop-opacity:1"
         offset="1"
         id="stop3856" />
    </linearGradient>
    <linearGradient
       inkscape:collect="always"
       id="linearGradient3872">
      <stop
         style="stop-color:#e5fdfa;stop-opacity:1;"
         offset="0"
         id="stop3874" />
      <stop
         style="stop-color:#94d1fd;stop-opacity:1"
         offset="1"
         id="stop3876" />
    </linearGradient>
    <linearGradient
       inkscape:collect="always"
       id="linearGradient3880">
      <stop
         style="stop-color:#ffffff;stop-opacity:1;"
         offset="0"
         id="stop3882" />
      <stop
         style="stop-color:#80b6fc;stop-opacity:1"
         offset="1"
         id="stop3884" />
    </linearGradient>
    <linearGradient
       inkscape:collect="always"
       xlink:href="#linearGradient3864"
       id="linearGradient18919"
       gradientUnits="userSpaceOnUse"
       gradientTransform="matrix(0.01627463,0,0,0.01627463,-8.1773819,-4.5374033)"
       x1="663.49005"
       y1="387.33957"
       x2="663.49005"
       y2="439.7843" />
    <linearGradient
       inkscape:collect="always"
       xlink:href="#linearGradient3834"
       id="linearGradient18921"
       gradientUnits="userSpaceOnUse"
       gradientTransform="matrix(0.01627463,0,0,0.01627463,-4.5969649,-4.5374033)"
       x1="413.07144"
       y1="427.22427"
       x2="508.35715"
       y2="427.22427" />
    <linearGradient
       inkscape:collect="always"
       xlink:href="#linearGradient3852"
       id="linearGradient18925"
       gradientUnits="userSpaceOnUse"
       gradientTransform="matrix(0.01627463,0,0,0.01627463,-8.1773819,-4.5374033)"
       x1="589.55371"
       y1="482.23877"
       x2="739.09076"
       y2="440.92401" />
    <linearGradient
       inkscape:collect="always"
       xlink:href="#linearGradient3872"
       id="linearGradient18927"
       gradientUnits="userSpaceOnUse"
       gradientTransform="matrix(0.01627463,0,0,0.01627463,-8.1773819,-4.5374033)"
       x1="683.38342"
       y1="346.80713"
       x2="683.38342"
       y2="371.16574" />
    <linearGradient
       inkscape:collect="always"
       xlink:href="#linearGradient3880"
       id="linearGradient18929"
       gradientUnits="userSpaceOnUse"
       gradientTransform="matrix(0.01627463,0,0,0.01627463,-8.1773819,-4.5374033)"
       x1="716.55231"
       y1="340.45145"
       x2="716.55231"
       y2="376.95331" />
    <linearGradient
       y2="1047.3622"
       x2="-15"
       y1="1047.3622"
       x1="-13"
       gradientTransform="matrix(0.29458457,0,0,0.29458457,5.4746391,-308.05629)"
       gradientUnits="userSpaceOnUse"
       id="linearGradient17787"
       xlink:href="#linearGradient4910-4-0-6-1"
       inkscape:collect="always" />
    <linearGradient
       id="linearGradient4910-4-0-6-1"
       inkscape:collect="always">
      <stop
         id="stop4912-8-5-7-89"
         offset="0"
         style="stop-color:#ffffff;stop-opacity:0" />
      <stop
         id="stop4914-8-1-8-2"
         offset="1"
         style="stop-color:#c5dff4;stop-opacity:1" />
    </linearGradient>
    <linearGradient
       y2="1044.3622"
       x2="-11"
       y1="1042.3622"
       x1="-11"
       gradientTransform="matrix(0.29458457,0,0,0.29458457,5.201242,-306.27959)"
       gradientUnits="userSpaceOnUse"
       id="linearGradient8881-0-1"
       xlink:href="#linearGradient4994-4-5-3-6"
       inkscape:collect="always" />
    <linearGradient
       inkscape:collect="always"
       id="linearGradient4994-4-5-3-6">
      <stop
         style="stop-color:#c5dff4;stop-opacity:1"
         offset="0"
         id="stop4996-5-9-7-8" />
      <stop
         style="stop-color:#ffffff;stop-opacity:0;"
         offset="1"
         id="stop4998-5-0-9-57" />
    </linearGradient>
  </defs>
  <sodipodi:namedview
     id="base"
     pagecolor="#ffffff"
     bordercolor="#666666"
     borderopacity="1.0"
     inkscape:pageopacity="0"
     inkscape:pageshadow="2"
     inkscape:zoom="11.670336"
     inkscape:cx="-10.259631"
     inkscape:cy="33.522217"
     inkscape:document-units="mm"
     inkscape:current-layer="g882"
     inkscape:document-rotation="0"
     showgrid="false"
     inkscape:pagecheckerboard="false"
     inkscape:window-width="3840"
     inkscape:window-height="1995"
     inkscape:window-x="1"
     inkscape:window-y="2160"
     inkscape:window-maximized="1"
     units="px" />
  
  <g>
    <g
       id="g882">
      <rect
         y="0.99494916"
         x="1.052655"
         height="2.1364899"
         width="2.7899358"
         id="rect2996-1-3-2"
         style="display:inline;fill:#8abae8;fill-opacity:1;stroke:#89b9e8;stroke-width:0.19559;stroke-opacity:1" />
      <path
         inkscape:connector-curvature="0"
         id="path3862-9"
         d="M 3.8484033,1.7842092 C 3.7321562,1.7028442 3.714719,1.6505233 3.5926594,1.6505233 c -0.1220597,0 -0.1394967,-0.023256 -0.1918081,0 -0.052311,0.023256 -0.092998,0.05232 -0.1685587,0.05232 -0.075561,0 -0.1336845,-0.00587 -0.1859957,-0.00587 -0.052311,0 -0.046499,-0.034874 -0.1336844,0.017408 -0.087185,0.05232 -0.1162472,0.075557 -0.203433,0.093003 -0.087185,0.017408 -0.052311,0.00587 -0.1627461,-0.029065 C 2.4359985,1.7434453 2.4185614,1.7318083 2.3488128,1.6504424 2.2790648,1.5690774 2.2267532,1.5690774 2.1279431,1.5748854 c -0.09881,0.00587 -0.1104351,0.040683 -0.1336845,0.040683 -0.023249,0 -0.040687,0.00587 -0.1162475,-0.046492 -0.075561,-0.05232 -0.1104347,-0.023256 -0.1046225,-0.069748 0.00581,-0.046511 -0.052311,-0.075576 -0.127872,-0.069747 -0.075561,0.00587 -0.081373,0 -0.1569339,0.017408 -0.075561,0.017408 -0.1046226,-0.023256 -0.1743708,0.029065 -0.069749,0.052301 0.046499,-0.017408 -0.1394969,0.081365 -0.1859955,0.098812 -0.2092452,0.069747 -0.1976205,0.1104498 0.011626,0.040683 0.011626,0.1278573 0.011626,0.2150514 0,0.087175 0,0.8486073 0,0.8486073 h 2.9236202 z"
         style="display:inline;fill:url(#linearGradient18919);fill-opacity:1;stroke:#ffffff;stroke-width:0.0325493;stroke-linecap:butt;stroke-linejoin:miter;stroke-miterlimit:4;stroke-dasharray:none;stroke-opacity:1" />
      <path
         inkscape:connector-curvature="0"
         id="path3832-1"
         d="m 2.1511926,2.4381064 c 0.017437,-0.011735 0.1685584,-0.1162588 0.1947141,-0.1394949 0.026156,-0.023256 0.00872,-0.081385 0.052311,-0.087194 0.043593,-0.00587 0.1394969,-0.014474 0.1627463,0.00293 0.023249,0.017408 0.03778,0.03196 0.063936,0.017408 0.026156,-0.014474 0.090092,-0.037768 0.1133412,-0.020341 0.023249,0.017408 0.034874,0.034874 0.06103,0.037788 0.026156,0.00293 0.055217,-0.00587 0.081373,-0.020341 0.026156,-0.014474 0.055217,-0.023256 0.087185,-0.023256 0.031968,0 0.06103,0.014474 0.084279,0.034874 0.023249,0.020341 0.058124,0.046492 0.084279,0.043597 0.026156,-0.00293 0.03778,-0.01154 0.06103,0.0088 0.023249,0.020361 0.069748,0.061044 0.1162473,0.069747 0.046499,0.0088 0.1336845,0.020361 0.1540278,0.031979 0.020343,0.01154 0.03778,0.02615 0.058123,0.037788 0.020343,0.01154 0.107529,0.081365 0.107529,0.081365 l 0.034874,0.043597 c 0,0 -0.2586501,0.055215 -0.284806,0.055215 -0.026155,0 -1.1014434,0.014474 -1.1130679,0.014474 -0.011626,0 -0.1365908,-0.081385 -0.1365908,-0.081385 z"
         style="display:inline;fill:url(#linearGradient18921);fill-opacity:1;stroke:#bbe4f7;stroke-width:0.0162746px;stroke-linecap:butt;stroke-linejoin:miter;stroke-opacity:1" />
      <path
         sodipodi:nodetypes="csssssssccsssccccc"
         inkscape:connector-curvature="0"
         id="path3830-2"
         d="m 0.9770945,1.813274 c 0,0 0.284806,0.098812 0.3429297,0.093003 0.058124,-0.00587 0.087185,-0.1046408 0.1801834,-0.05232 0.092998,0.05232 0.145309,0.1976244 0.2499315,0.2266891 0.1046226,0.029065 0.063936,-0.017408 0.1627463,0.034874 0.09881,0.052301 0.1336846,0.063938 0.1743711,0.063938 0.040687,0 0.05416,-1.76e-4 0.1075288,0.049406 0.040686,0.037768 0.058124,0.052301 0.075561,0.092984 0.017437,0.040683 0.078467,0.043597 0.1191534,0.072662 0.1515949,0.097326 0.4230062,0.084182 0.5754244,0.069747 0.092998,0 0.3429295,0.029065 0.4184901,0.034874 0.075561,0.00587 0.1162475,0.00587 0.1918083,0.00587 0.075561,0 0.092998,-0.00587 0.1511214,0 0.058124,0.00587 0.1627463,0.00587 0.1627463,0.00587 l 0.029062,0.093003 -0.1627463,0.1104303 H 0.9770947 Z"
         style="display:inline;fill:#396594;fill-opacity:1;stroke:#396594;stroke-width:0.0162746px;stroke-linecap:butt;stroke-linejoin:miter;stroke-opacity:1" />
      <path
         inkscape:connector-curvature="0"
         id="path3828-4"
         d="m 1.046843,2.1794579 c 0.087186,0 0.1569338,0.040683 0.1976204,0.034874 0.040687,-0.00587 0.1976205,-0.093003 0.3196801,-0.046511 0.1220597,0.046511 0.2324947,0.1511326 0.2906182,0.1627506 0.058124,0.01154 0.2266824,0.040683 0.331305,0.040683 0.1046226,0 0.1976204,-0.063938 0.2848059,-0.05811 0.087185,0.00587 0.1511216,0.046492 0.2034328,0.05811 0.052311,0.011735 0.1104351,-0.023236 0.1511216,-0.01154 0.040687,0.01154 0.092998,0.063938 0.092998,0.063938 0,0 0.2208698,-0.063938 0.2731812,-0.034874 0.052311,0.029065 0.1162473,0.081365 0.2092452,0.081365 0.092998,0 0.081373,-0.040683 0.1627461,-0.00587 0.081373,0.034874 0.1743712,0.1336859 0.1743712,0.1336859 l 0.023249,0.063938 c 0,0 -0.7149211,0 -0.7381705,0.00587 -0.023249,0.00587 -1.3600937,0.034874 -1.394968,0.034874 -0.034874,0 -0.3952408,-0.00587 -0.4243027,-0.01154 -0.029062,-0.00587 -0.2324946,-0.029065 -0.2324946,-0.029065 0,0 -0.058124,-0.4475496 -0.029062,-0.4475496 0.029062,0 0.1046226,-0.034874 0.1046226,-0.034874 z"
         style="display:inline;fill:#5b87b6;fill-opacity:1;stroke:#638fbe;stroke-width:0.0162746px;stroke-linecap:butt;stroke-linejoin:miter;stroke-opacity:1" />
      <rect
         y="2.6021698"
         x="1.0008051"
         height="0.55895507"
         width="2.9262943"
         id="rect3850-9"
         style="display:inline;fill:url(#linearGradient18925);fill-opacity:1;stroke:#316493;stroke-width:0.0162746;stroke-linecap:round;stroke-linejoin:round;stroke-miterlimit:4;stroke-dasharray:none;stroke-dashoffset:0;stroke-opacity:1" />
      <path
         inkscape:connector-curvature="0"
         id="path3860-9"
         d="m 3.1334824,1.5517112 c -0.058124,0.040683 -0.1394969,0.069747 -0.2208699,0.063938 -0.081373,-0.00587 -0.1976206,0.034874 -0.2092451,-0.052301 -0.011626,-0.087194 -0.052311,-0.05232 -0.081373,-0.1220679 -0.029062,-0.069747 -0.046499,-0.1104302 -0.023249,-0.151113 0.023249,-0.040702 0.069748,-0.034893 0.09881,-0.069747 0.029062,-0.034893 0.052311,-0.1046408 0.1046226,-0.1104498 0.052311,-0.00587 0.09881,0 0.127872,-0.00587 0.029062,-0.00587 0.1046226,-0.087175 0.1511216,-0.052301 0.046499,0.034874 0.034874,0.1046212 0.081373,0.1104303 0.046499,0.00587 0.040686,0.029065 0.1046225,-0.034874 0.063936,-0.063938 0.092998,-0.1104302 0.1627461,-0.13368587 0.069748,-0.023256 0.1394969,-0.040683 0.203433,-0.023256 0.063936,0.017407 0.092998,0.023256 0.1453091,0.046511 0.052311,0.023236 -0.017437,0.1220483 -0.1162473,0.151113 -0.09881,0.029065 -0.09881,0.017408 -0.174371,0.081365 -0.075561,0.063938 -0.2034328,0.081385 -0.1859957,0.1162589 0.017437,0.034874 0,0.034874 0.063936,0.034874 0.063936,0 0.1685585,-0.00587 0.127872,0.046492 -0.040686,0.05232 0.017437,0.087194 -0.075561,0.1046212 -0.092998,0.017408 -0.1162472,-0.029065 -0.1162472,0.017408 0,0.046492 -0.029062,0.1220483 -0.063936,0.046492 C 3.2032311,1.539992 3.1334825,1.551611 3.1334825,1.551611 Z"
         style="display:inline;fill:url(#linearGradient18927);fill-opacity:1;stroke:url(#linearGradient18929);stroke-width:0.0325493;stroke-linecap:butt;stroke-linejoin:miter;stroke-miterlimit:4;stroke-dasharray:none;stroke-opacity:1" />
      <path
         inkscape:connector-curvature="0"
         style="display:inline;fill:#f4fcff;fill-opacity:1;stroke:none;stroke-width:0.294584"
         d="M 1.0562698,0.79523392 V 3.437304 h 2.651261 V 0.79523392 Z M 1.3416485,1.0806274 H 3.422152 V 3.1519105 H 1.3416485 Z"
         id="rect3997-9-2-8-1" />
      <path
         sodipodi:nodetypes="ccccc"
         inkscape:connector-curvature="0"
         id="rect3997-9-2"
         d="M 0.9076767,0.64920841 H 3.8548232 V 3.5841249 H 0.9076767 Z"
         style="display:inline;fill:none;stroke:#4d81b4;stroke-width:0.294584;stroke-linecap:butt;stroke-linejoin:miter;stroke-miterlimit:4;stroke-dashoffset:0;stroke-opacity:1" />
      <path
         style="display:inline;fill:url(#linearGradient17787);fill-opacity:1;stroke:none;stroke-width:0.294584"
         d="M 1.3504554,1.0785064 1.3508529,3.437304 H 1.0562687 L 1.0558712,0.78392187 Z"
         id="rect4853-82-7-7"
         inkscape:connector-curvature="0"
         sodipodi:nodetypes="ccccc" />
      <path
         style="display:inline;fill:url(#linearGradient8881-0-1);fill-opacity:1;stroke:none;stroke-width:0.294584"
         d="m 1.3504554,1.0785064 2.3570754,0.00295 V 0.78686768 l -2.6516596,-0.00295 z"
         id="rect4853-82-0-9"
         inkscape:connector-curvature="0"
         sodipodi:nodetypes="ccccc" />
    </g>
  </g>
</svg>
