<?xml version="1.0" encoding="UTF-8" standalone="no"?>
<svg
   version="1.1"
   viewBox="0 0 24 24"
   aria-labelledby="title"
   aria-describedby="desc"
   role="img"
   id="svg2"
   xmlns="http://www.w3.org/2000/svg"
   xmlns:svg="http://www.w3.org/2000/svg">
  <defs
     id="defs2" />
  <g
     id="g1">
    <rect
       fill="none"
       height="24"
       width="24"
       id="rect1" />
  </g>
  <g
     id="g2">
    <polygon
       points="17,7 15.59,8.41 18.17,11 9,11 9,13 18.17,13 15.59,15.59 17,17 22,12 "
       id="polygon1"
       transform="matrix(-1,0,0,1,28.981308,0)" />
    <path
       d="M19,19H5V5h14v2h2V5c0-1.1-0.89-2-2-2H5C3.9,3,3,3.9,3,5v14c0,1.1,0.9,2,2,2h14c1.11,0,2-0.9,2-2v-2h-2V19z"
       id="path1" />
  </g>
</svg>
